<svg xmlns="http://www.w3.org/2000/svg" viewBox="0 0 986.21 511.77">
  <title>Asset 2</title>
  <g id="95c3e814-9ce8-45e8-9919-36d2503715f3" data-name="Layer 2">
    <g id="7e9316f2-a16b-4ec9-be7f-d9c1286eae02" data-name="Layer 1">
      <g id="214de585-5aa9-48ac-aba8-8a22ef7cfde6" data-name="Page-1">
        <g id="4569bba8-848f-40ad-9b27-5711cbad64c0" data-name="Top-Copy">
          <g id="3e0e57bf-4ffb-44a5-baf8-c673edf6683a" data-name="B">
            <path d="M960.61,121.23q0,76.8-87.34,108.43,31.62,9.79,52,21.84,61,35.39,61,106.17,0,69.27-53.46,110.31T789.7,509q-32.38,0-82.07-3.76t-73-3.76a309.91,309.91,0,0,0-38.4,2.26l-35.39,4.52a31.72,31.72,0,0,0-5.27.75h-5.27q-32.38-.75-32.38-27.11,0-24.09,23.34-24.09,6,0,20.33,2.26a108.92,108.92,0,0,0,15.81,1.51q38.4,0,38.4-55.72V103.16q0-56.47-38.4-56.47a97.77,97.77,0,0,0-15.81,1.51Q548,50.45,541.24,50.45q-23.34,0-23.34-24.09Q517.89,0,552.53,0h9.79l36.89,5.27Q615,7.53,642.13,7.53q28.61,0,81.32-4.52,35.39-3,76-3,76,0,118.59,32T960.61,121.23Zm-287.84,33q0,39.92,7.16,49.33T719.47,213h42.18Q895,213,895,126.38,895,47.3,785,47.3q-76.82,0-94.52,9.79t-17.7,50.46Zm0,152.2v83.6q0,49,16.57,60.26t90.38,11.3q140.84,0,140.84-105.45Q920.57,259,785,259H722.48q-40.67,0-46.7,18.08Q672.78,286.12,672.78,306.45Z" fill="#16c800"/>
          </g>
          <g id="0941e18a-8d07-41f2-94e4-bc437b554bc9" data-name="R">
            <path d="M57.45,229q21.92,10.56,55.94,18.11-44.6,8.3-61.61,33.2t-17,82.24v35c.51,2-16.22,82-16.22,86,0,36.23,14.19,27.17,43.67,27.17,38.95,0,36.58-16.21,33.55-27.17s0-3.15,0-24.15l.76-61.14-.76-25.66V356q0-50.57,19.44-66.8T195.66,273h69.44s24.2,9.58,24.67,29.2v58.12c-.47,37.24-1,58.37-2,63.4Q281,461.47,250,461.47q-10.59,0-15.88-1.51-12.86-2.26-19.66-2.26-24.2,0-24.2,25.66,0,27.17,32.52,27.17L234.1,509l40.84-5.28a329.83,329.83,0,0,1,41.6-3,434.58,434.58,0,0,1,52.94,3.77l36.3,4.53q12.1,1.51,11.34,1.51,32.52,0,32.52-27.17,0-24.15-23.45-24.15-3.78,0-20.42,1.51A60.48,60.48,0,0,1,389.9,463c-25.72,0-39.12-56.61-39.12-56.61V103.72q0-56.59,38.56-56.59A129.33,129.33,0,0,1,407.47,49a129.33,129.33,0,0,0,18.14,1.89,22.05,22.05,0,0,0,16.63-7.17,23.83,23.83,0,0,0,6.8-17Q449.05.36,415.79.36q-3,0-10.58.75L366.65,4.89Q351.53,6.4,328.85,6.4q-23.44,0-52.16-1.51l-57.45-3Q190.51.36,166.32.36,0,.36,0,127.11,0,201.81,57.45,229Zm210.39-7H196.75q-63.53,0-95.3-18.12Q62.88,182,62.88,130.67q0-86,118-86,62.77,0,85.09,9.44T289,91.42l.76,24.15v86.8q0,12.83-4.54,16.23T267.84,222Z" fill="#16c800"/>
          </g>
          <path id="fe069325-8f97-49c1-9f99-bdfbbdce572f" data-name="}" d="M575.28,32.14V13.21q45.24,0,60.12,19.13t14.88,55V198.73q0,33.7,27.33,53.74Q650.28,281.63,650.28,308V421.3q0,41.3-17.31,55.87t-57.69,14.57V472.82q32.35,0,42.17-10.68t9.83-40V308.33q0-19.23,8.16-31.74,4.23-7.93,16.93-24.11-25.09-18.31-25.09-54v-112q0-29-9.67-41.66T575.28,32.14Z" stroke="#000" stroke-width="5"/>
          <path id="149b0303-37f1-45d3-95f8-6e8ce5639296" data-name="}-copy" d="M387.28,33.14V14.21q-45.24,0-60.12,19.13t-14.88,55V199.73q0,33.7-27.33,53.74,27.33,29.15,27.33,55.57V422.3q0,41.3,17.31,55.87t57.69,14.57V473.82q-32.35,0-42.17-10.68t-9.83-40V309.33q0-19.23-8.16-31.74-4.23-7.93-16.93-24.11,25.09-18.31,25.09-54v-112q0-29,9.67-41.66T387.28,33.14Z" stroke="#000" stroke-width="5"/>
        </g>
      </g>
    </g>
  </g>
</svg>
